# Blender v2.74 (sub 0) OBJ File: ''
# www.blender.org
mtllib monster-sign-low-poly.mtl
o Cube_Cube.001
v -6.863776 -132.406265 -8.466907
v -10.809096 61.423664 -6.078431
v 6.863776 -132.406265 -8.466907
v 10.809096 61.423664 -6.078431
v 10.809096 -132.406265 -19.165970
v 10.809096 61.423664 -19.165970
v -6.863776 -132.406265 -16.777493
v -10.809096 61.423664 -19.165970
v -10.809096 -88.992874 -6.078431
v 10.809096 -90.830086 -6.078431
v 10.809096 -96.693573 -19.165970
v -10.809096 -94.856369 -19.165970
vt 1.000000 0.000000
vt 1.000000 0.214498
vt 0.000000 0.223977
vt 0.000000 0.000000
vt 1.000000 0.184248
vt 0.000000 0.214498
vt 1.000000 0.193726
vt 0.000000 0.184248
vt 1.000000 0.223977
vt 1.000000 1.000000
vt 0.000000 1.000000
vt 0.000000 0.193726
vn -0.002900 -0.056100 0.998400
vn 0.982700 -0.055600 0.176700
vn -0.062300 -0.035900 -0.997400
vn -1.000000 0.000000 0.000000
vn 0.000000 1.000000 0.000000
vn 0.000000 -1.000000 0.000000
vn 0.000000 0.000000 1.000000
vn 1.000000 0.000000 0.000000
vn 0.000000 0.000000 -1.000000
vn -0.994900 -0.097000 0.026600
usemtl Mat
s 1
f 3/1/1 10/2/1 9/3/1 1/4/1
f 5/1/2 11/5/2 10/6/2 3/4/2
f 7/1/3 12/7/3 11/8/3 5/4/3
f 9/9/4 2/10/4 8/11/4 12/12/4
f 4/1/5 6/10/5 8/11/5 2/4/5
f 5/1/6 3/10/6 1/11/6 7/4/6
f 10/2/7 4/10/7 2/11/7 9/3/7
f 11/5/8 6/10/8 4/11/8 10/6/8
f 12/7/9 8/10/9 6/11/9 11/8/9
f 12/12/10 7/4/10 1/1/10 9/9/10
o Null
v -66.363144 23.394175 6.017648
v 66.198257 20.695284 6.017648
v 66.198257 20.695284 -6.017648
v -66.363144 23.394175 -6.017648
v -66.117180 -20.756750 6.017648
v 65.176743 -16.015924 6.017648
v 65.176743 -16.015924 -6.017648
v -66.117180 -20.756750 -6.017648
v -66.363144 23.394175 6.017648
v 66.198257 20.695284 6.017648
v 66.198257 20.695284 -6.017648
v -66.363144 23.394175 -6.017648
v -66.117180 -20.756750 6.017648
v 65.176743 -16.015924 6.017648
v 65.176743 -16.015924 -6.017648
v -66.117180 -20.756750 -6.017648
v -62.966545 0.033010 6.017648
v -66.117180 -20.756750 0.000000
v -62.966545 0.033010 -6.017648
v -66.363144 23.394175 0.000000
v 0.000000 20.860565 6.017648
v 63.602497 -0.988893 6.017648
v 0.000000 -20.742483 6.017648
v 66.198257 20.695284 0.000000
v 63.602497 -0.988893 -6.017648
v 65.176743 -16.015924 0.000000
v 0.000000 20.860565 -6.017648
v 0.000000 -20.742483 -6.017648
v 0.000000 -20.742483 -6.017648
v 65.176743 -16.015924 0.000000
v 0.000000 -20.742483 6.017648
v -66.117180 -20.756750 0.000000
v 0.000000 20.860565 6.017648
v 66.198257 20.695284 0.000000
v 0.000000 20.860565 -6.017648
v -66.363144 23.394175 0.000000
v -62.966545 0.033010 0.000000
v 0.000000 0.059040 6.017648
v 63.602497 -0.988893 0.000000
v 0.000000 0.059040 -6.017648
v 0.000000 -20.742483 0.000000
v 0.000000 20.860565 0.000000
vt 0.951638 0.989453
vt 0.951638 0.811909
vt 0.991761 0.811909
vt 0.991761 0.989453
vt 0.951638 0.634364
vt 0.991761 0.634364
vt 0.911515 0.811909
vt 0.911515 0.634364
vt 0.911515 0.989453
vt 0.451638 0.634364
vt 0.451638 0.811909
vt 0.008239 0.811909
vt 0.008239 0.634364
vt 0.451638 0.989453
vt 0.008239 0.989453
vt 0.895037 0.811909
vt 0.895037 0.989453
vt 0.895037 0.634364
vt 0.951638 0.258181
vt 0.951638 0.435726
vt 0.911515 0.435726
vt 0.911515 0.258181
vt 0.951638 0.613270
vt 0.911515 0.613270
vt 0.991761 0.435726
vt 0.991761 0.613270
vt 0.991761 0.258181
vt 0.451638 0.258181
vt 0.451638 0.435726
vt 0.008239 0.435726
vt 0.008239 0.258181
vt 0.451638 0.613270
vt 0.008239 0.613270
vt 0.895037 0.435726
vt 0.895037 0.613270
vt 0.895037 0.258181
vt 0.008239 0.185726
vt 0.451638 0.185726
vt 0.451638 0.237087
vt 0.008239 0.237087
vt 0.895037 0.185726
vt 0.895037 0.237087
vt 0.451638 0.134364
vt 0.895037 0.134364
vt 0.008239 0.134364
vt 0.008239 0.061909
vt 0.451638 0.061909
vt 0.451638 0.113270
vt 0.008239 0.113270
vt 0.895037 0.061909
vt 0.895037 0.113270
vt 0.451638 0.010547
vt 0.895037 0.010547
vt 0.008239 0.010547
vn -0.989600 -0.143900 0.000000
vn -0.988700 0.149800 0.000000
vn 0.000000 0.000000 1.000000
vn 0.994600 0.104200 0.000000
vn 0.992900 -0.118900 0.000000
vn 0.000000 0.000000 -1.000000
vn -0.000200 1.000000 0.000000
vn -0.072300 0.997400 0.000000
vn -0.038200 -0.999300 0.000000
vn -0.002500 -1.000000 0.000000
usemtl Null_1
s 1
f 32/13/11 49/14/11 29/15/11 13/16/11
f 49/14/12 30/17/12 17/18/12 29/15/12
f 31/19/12 20/20/12 30/17/12 49/14/12
f 16/21/11 31/19/11 49/14/11 32/13/11
f 35/22/13 50/23/13 29/24/13 17/25/13
f 50/23/13 33/26/13 13/27/13 29/24/13
f 34/28/13 14/29/13 33/26/13 50/23/13
f 18/30/13 34/28/13 50/23/13 35/22/13
f 38/31/14 51/32/14 34/33/14 18/34/14
f 51/32/15 36/35/15 14/36/15 34/33/15
f 37/37/15 15/38/15 36/35/15 51/32/15
f 19/39/14 37/37/14 51/32/14 38/31/14
f 40/40/16 52/41/16 37/42/16 19/43/16
f 52/41/16 39/44/16 15/45/16 37/42/16
f 31/46/16 16/47/16 39/44/16 52/41/16
f 20/48/16 31/46/16 52/41/16 40/40/16
f 44/49/17 53/50/17 41/51/17 28/52/17
f 53/50/18 42/53/18 27/54/18 41/51/18
f 43/55/18 26/56/18 42/53/18 53/50/18
f 25/57/17 43/55/17 53/50/17 44/49/17
f 48/58/19 54/59/19 45/60/19 21/61/19
f 54/59/20 46/62/20 22/63/20 45/60/20
f 47/64/20 23/65/20 46/62/20 54/59/20
f 24/66/19 47/64/19 54/59/19 48/58/19
o Null_3
v -61.760208 -47.481884 6.017648
v 57.532890 -45.354404 6.017648
v 57.532890 -45.354404 -6.017648
v -61.760208 -47.481884 -6.017648
v -66.596375 -23.727409 6.017648
v 61.800728 -22.502007 6.017648
v 61.800728 -22.502007 -6.017648
v -66.596375 -23.727409 -6.017648
v -66.596375 -23.727409 6.017648
v 61.800728 -22.502007 6.017648
v 61.800728 -22.502007 -6.017648
v -66.596375 -23.727409 -6.017648
v -63.127968 -34.696079 6.017648
v -0.517368 -23.101887 6.017648
v 59.148727 -33.517876 6.017648
v -1.121074 -47.420246 6.017648
v 61.800728 -22.502007 0.000000
v 59.148727 -33.517876 -6.017648
v 57.532890 -45.354404 0.000000
v -0.517368 -23.101887 -6.017648
v -63.127968 -34.696079 -6.017648
v -1.121074 -47.420246 -6.017648
v -61.760208 -47.481884 0.000000
v -66.596375 -23.727409 0.000000
v -66.596375 -23.727409 0.000000
v -0.517368 -23.101887 6.017648
v 61.800728 -22.502007 0.000000
v -0.517368 -23.101887 -6.017648
v -0.853066 -35.223610 6.017648
v 59.148727 -33.517876 0.000000
v -0.853066 -35.223610 -6.017648
v -1.121074 -47.420246 0.000000
v -63.127968 -34.696079 0.000000
v -0.517368 -23.101887 0.000000
vt 0.500000 0.762852
vt 0.500000 0.876722
vt 0.007531 0.876722
vt 0.007531 0.762852
vt 0.500000 0.990591
vt 0.007531 0.990591
vt 0.992469 0.876722
vt 0.992469 0.990591
vt 0.992469 0.762852
vt 0.156282 0.009409
vt 0.156282 0.123279
vt 0.111719 0.123279
vt 0.111719 0.009409
vt 0.156282 0.237149
vt 0.111719 0.237149
vt 0.200845 0.123279
vt 0.200845 0.237149
vt 0.200845 0.009409
vt 0.500000 0.516294
vt 0.500000 0.630164
vt 0.007531 0.630164
vt 0.007531 0.516294
vt 0.500000 0.744034
vt 0.007531 0.744034
vt 0.992469 0.630164
vt 0.992469 0.744034
vt 0.992469 0.516294
vt 0.500000 0.386130
vt 0.500000 0.441804
vt 0.007531 0.441804
vt 0.007531 0.386130
vt 0.500000 0.497477
vt 0.007531 0.497477
vt 0.992469 0.441804
vt 0.992469 0.497477
vt 0.992469 0.386130
vt 0.052094 0.237149
vt 0.052094 0.123279
vt 0.096657 0.123279
vt 0.096657 0.237149
vt 0.052094 0.009409
vt 0.096657 0.009409
vt 0.007531 0.123279
vt 0.007531 0.009409
vt 0.007531 0.237149
vt 0.500000 0.255966
vt 0.500000 0.311639
vt 0.007531 0.311639
vt 0.007531 0.255966
vt 0.500000 0.367313
vt 0.007531 0.367313
vt 0.992469 0.311639
vt 0.992469 0.367313
vt 0.992469 0.255966
vn 0.000000 0.000000 1.000000
vn 0.990800 -0.135300 0.000000
vn 0.972200 -0.234100 0.000000
vn 0.000000 0.000000 -1.000000
vn 0.001000 -1.000000 0.000000
vn 0.035200 -0.999400 0.000000
vn -0.953500 -0.301500 0.000000
vn -0.994300 -0.106400 0.000000
vn 0.009500 -1.000000 0.000000
vn 0.009600 -1.000000 0.000000
usemtl Null
s 1
f 70/67/21 83/68/21 67/69/21 55/70/21
f 83/68/21 68/71/21 59/72/21 67/69/21
f 69/73/21 60/74/21 68/71/21 83/68/21
f 56/75/21 69/73/21 83/68/21 70/67/21
f 73/76/22 84/77/22 69/78/22 56/79/22
f 84/77/23 71/80/23 60/81/23 69/78/23
f 72/82/23 61/83/23 71/80/23 84/77/23
f 57/84/22 72/82/22 84/77/22 73/76/22
f 76/85/24 85/86/24 72/87/24 57/88/24
f 85/86/24 74/89/24 61/90/24 72/87/24
f 75/91/24 62/92/24 74/89/24 85/86/24
f 58/93/24 75/91/24 85/86/24 76/85/24
f 76/94/25 86/95/25 77/96/25 58/97/25
f 86/95/25 70/98/25 55/99/25 77/96/25
f 73/100/26 56/101/26 70/98/26 86/95/26
f 57/102/26 73/100/26 86/95/26 76/94/26
f 78/103/27 87/104/27 67/105/27 59/106/27
f 87/104/28 77/107/28 55/108/28 67/105/28
f 75/109/28 58/110/28 77/107/28 87/104/28
f 62/111/27 75/109/27 87/104/27 78/103/27
f 82/112/29 88/113/29 79/114/29 66/115/29
f 88/113/29 80/116/29 63/117/29 79/114/29
f 81/118/30 64/119/30 80/116/29 88/113/29
f 65/120/30 81/118/30 88/113/29 82/112/29
o Null_1_2
v -67.932526 51.097233 6.017648
v 61.476040 50.381496 6.017648
v 61.476040 50.381496 -6.017648
v -67.932526 51.097233 -6.017648
v -67.923195 24.372353 6.017648
v 69.601448 21.175262 6.017648
v 69.601448 21.175262 -6.017648
v -67.923195 24.372353 -6.017648
v -67.923195 24.372353 6.017648
v 69.601448 21.175262 6.017648
v 69.601448 21.175262 -6.017648
v -67.923195 24.372353 -6.017648
v -70.296692 38.097397 6.017648
v 0.000000 50.868717 6.017648
v 66.586327 35.609825 6.017648
v 0.000000 24.159714 6.017648
v 61.476040 50.381496 0.000000
v 66.586327 35.609825 -6.017648
v 69.601448 21.175262 0.000000
v 0.000000 50.868717 -6.017648
v -70.296692 38.097397 -6.017648
v 0.000000 24.159714 -6.017648
v -67.932526 51.097233 0.000000
v -67.923195 24.372353 0.000000
v 69.601448 21.175262 0.000000
v 0.000000 24.159714 6.017648
v -67.923195 24.372353 0.000000
v 0.000000 24.159714 -6.017648
v 0.000000 37.514214 6.017648
v 66.586327 35.609825 0.000000
v 0.000000 37.514214 -6.017648
v -70.296692 38.097397 0.000000
v 0.000000 50.868717 0.000000
v 0.000000 24.159714 0.000000
vt 0.500000 0.757936
vt 0.500000 0.874405
vt 0.007745 0.874405
vt 0.007745 0.757936
vt 0.500000 0.990874
vt 0.007745 0.990874
vt 0.992255 0.874405
vt 0.992255 0.990874
vt 0.992255 0.757936
vt 0.052289 0.009126
vt 0.052289 0.125595
vt 0.007745 0.125595
vt 0.007745 0.009126
vt 0.052289 0.242064
vt 0.007745 0.242064
vt 0.096833 0.125595
vt 0.096833 0.242064
vt 0.096833 0.009126
vt 0.500000 0.506746
vt 0.500000 0.623215
vt 0.007745 0.623215
vt 0.007745 0.506746
vt 0.500000 0.739685
vt 0.007745 0.739685
vt 0.992255 0.623215
vt 0.992255 0.739685
vt 0.992255 0.506746
vt 0.156867 0.009126
vt 0.156867 0.125595
vt 0.112324 0.125595
vt 0.112324 0.009126
vt 0.156867 0.242064
vt 0.112324 0.242064
vt 0.201411 0.125595
vt 0.201411 0.242064
vt 0.201411 0.009126
vt 0.500000 0.383531
vt 0.500000 0.436013
vt 0.007745 0.436013
vt 0.007745 0.383531
vt 0.500000 0.488495
vt 0.007745 0.488495
vt 0.992255 0.436013
vt 0.992255 0.488495
vt 0.992255 0.383531
vt 0.500000 0.365279
vt 0.500000 0.312797
vt 0.992255 0.312797
vt 0.992255 0.365279
vt 0.500000 0.260316
vt 0.992255 0.260316
vt 0.007745 0.312797
vt 0.007745 0.260316
vt 0.007745 0.365279
vn 0.000000 0.000000 1.000000
vn 0.978900 0.204500 0.000000
vn 0.945000 0.326900 0.000000
vn -0.000000 0.000000 -1.000000
vn -0.985400 -0.170400 0.000000
vn -0.983900 0.178900 0.000000
vn 0.003400 1.000000 0.000000
vn 0.007900 1.000000 0.000000
vn 0.042800 0.999100 0.000000
vn 0.003100 1.000000 0.000000
usemtl Null_2
s 1
f 104/121/31 117/122/31 101/123/31 93/124/31
f 117/122/31 102/125/31 89/126/31 101/123/31
f 103/127/31 90/128/31 102/125/31 117/122/31
f 94/129/31 103/127/31 117/122/31 104/121/31
f 107/130/32 118/131/32 103/132/32 94/133/32
f 118/131/33 105/134/33 90/135/33 103/132/33
f 106/136/33 91/137/33 105/134/33 118/131/33
f 95/138/32 106/136/32 118/131/32 107/130/32
f 110/139/34 119/140/34 106/141/34 95/142/34
f 119/140/34 108/143/34 91/144/34 106/141/34
f 109/145/34 92/146/34 108/143/34 119/140/34
f 96/147/34 109/145/34 119/140/34 110/139/34
f 112/148/35 120/149/35 109/150/35 96/151/35
f 120/149/36 111/152/36 92/153/36 109/150/36
f 101/154/36 89/155/36 111/152/36 120/149/36
f 93/156/35 101/154/35 120/149/35 112/148/35
f 102/157/37 121/158/37 111/159/37 89/160/37
f 121/158/37 108/161/37 92/162/37 111/159/37
f 105/163/38 91/164/38 108/161/38 121/158/38
f 90/165/38 105/163/38 121/158/38 102/157/38
f 116/166/39 122/167/39 113/168/39 99/169/39
f 122/167/39 114/170/39 98/171/39 113/168/39
f 115/172/40 97/173/40 114/170/40 122/167/40
f 100/174/40 115/172/40 122/167/40 116/166/40
o Disc_3
v 1.964587 -40.690430 7.385809
v 5.604051 -40.881599 6.889784
v 2.884304 -40.743076 7.323169
v 3.236063 -37.171719 7.312334
v 2.302963 -39.832298 7.426905
v -1.036709 -38.292419 7.503551
v 1.253998 -40.107433 7.473848
v -1.309440 -42.694927 7.199180
v 1.187042 -41.188248 7.399125
v 2.794775 -44.295128 6.819851
v 2.194627 -41.581097 7.306000
v 5.619845 -40.899658 7.136855
v 3.251858 -37.189777 7.559404
v -1.020915 -38.310478 7.750621
v -1.293646 -42.712990 7.446250
v 2.810570 -44.313190 7.066922
v 1.630522 -40.308437 2.159894
v 5.604051 -40.881599 6.889784
v 2.868510 -40.725014 7.076098
v 3.236063 -37.171719 7.312334
v 2.287169 -39.814240 7.179834
v -1.036709 -38.292419 7.503551
v 1.238204 -40.089371 7.226778
v -1.309440 -42.694927 7.199180
v 1.171248 -41.170189 7.152055
v 2.794775 -44.295128 6.819851
v 2.178833 -41.563038 7.058929
v 2.550240 -40.361084 2.097254
v 1.968899 -39.450306 2.200989
v 0.919933 -39.725437 2.247933
v 0.852978 -40.806255 2.173210
v 1.860563 -41.199104 2.080085
v 1.444387 33.584400 7.307613
v 5.113287 33.680405 7.548941
v 2.359100 33.614689 7.429917
v 2.469564 37.152969 6.841026
v 1.710066 34.467201 7.256124
v -1.669716 35.656078 6.422955
v 0.693873 34.099716 7.153488
v -1.584209 31.258381 6.872487
v 0.714865 33.020081 7.263848
v 2.607918 30.037350 7.568385
v 1.744032 32.720318 7.434690
v 5.079756 33.704773 7.793688
v 2.436033 37.177338 7.085773
v -1.703247 35.680443 6.667702
v -1.617740 31.282747 7.117235
v 2.574386 30.061716 7.813132
v 2.153625 33.069019 2.130832
v 5.113287 33.680405 7.548941
v 2.392631 33.590321 7.185170
v 2.469564 37.152969 6.841026
v 1.743597 34.442837 7.011376
v -1.669716 35.656078 6.422955
v 0.727404 34.075348 6.908740
v -1.584209 31.258381 6.872487
v 0.748396 32.995716 7.019100
v 2.607918 30.037350 7.568385
v 1.777563 32.695953 7.189943
v 3.068338 33.099308 2.253135
v 2.419304 33.951820 2.079342
v 1.403111 33.584335 1.976706
v 1.424102 32.504700 2.087066
v 2.453269 32.204937 2.257909
v 1.796501 -0.651505 7.379935
v 5.466197 -0.651505 7.131703
v 2.719851 -0.651505 7.379935
v 2.867341 2.925514 7.131703
v 2.081832 0.226653 7.379935
v -1.337697 1.559214 7.131703
v 1.049495 -0.108773 7.379935
v -1.337697 -2.862224 7.131703
v 1.049495 -1.194236 7.379935
v 2.867341 -4.228523 7.131703
v 2.081832 -1.529663 7.379935
v 5.466197 -0.651505 7.379935
v 2.867341 2.925514 7.379935
v -1.337697 1.559214 7.379935
v -1.337697 -2.862224 7.379935
v 2.867341 -4.228523 7.379935
v 1.796501 -0.651505 2.129440
v 5.466197 -0.651505 7.131703
v 2.719851 -0.651505 7.131703
v 2.867341 2.925514 7.131703
v 2.081832 0.226653 7.131703
v -1.337697 1.559214 7.131703
v 1.049495 -0.108773 7.131703
v -1.337697 -2.862224 7.131703
v 1.049495 -1.194236 7.131703
v 2.867341 -4.228523 7.131703
v 2.081832 -1.529663 7.131703
v 2.719851 -0.651505 2.129440
v 2.081832 0.226653 2.129440
v 1.049495 -0.108773 2.129440
v 1.049495 -1.194236 2.129440
v 2.081832 -1.529663 2.129440
vt 0.654508 0.975528
vt 0.577254 0.737764
vt 0.750000 0.500000
vt 1.000000 0.500000
vt 0.500000 0.500000
vt 0.095492 0.793893
vt 0.297746 0.646946
vt 0.095492 0.206107
vt 0.297746 0.353054
vt 0.654508 0.024472
vt 0.577254 0.262236
vn 0.063600 -0.072800 0.995300
vn 0.842100 0.539100 -0.014400
vn -0.249100 0.964600 0.086400
vn -0.996100 0.057000 0.067800
vn -0.366500 -0.929400 -0.044500
vn 0.769600 -0.631400 -0.095300
vn -0.063600 0.072800 -0.995300
vn -0.135100 0.098200 0.986000
vn 0.790100 0.611200 0.047400
vn -0.324500 0.935800 -0.137600
vn -0.990600 -0.032800 -0.132500
vn -0.287700 -0.956100 0.055800
vn 0.812800 -0.558100 0.166900
vn 0.135100 -0.098200 -0.986000
vn -0.000000 0.000000 1.000000
vn 0.809000 0.587800 0.000000
vn -0.309000 0.951100 0.000000
vn -1.000000 0.000000 0.000000
vn -0.309000 -0.951100 0.000000
vn 0.809000 -0.587800 0.000000
vn -0.000000 0.000000 -1.000000
usemtl Mat.001
s 1
f 135/175/41 127/176/41 125/177/41 134/178/41
f 127/176/41 123/179/41 125/177/41
f 136/180/41 129/181/41 127/176/41 135/175/41
f 129/181/41 123/179/41 127/176/41
f 137/182/41 131/183/41 129/181/41 136/180/41
f 131/183/41 123/179/41 129/181/41
f 138/184/41 133/185/41 131/183/41 137/182/41
f 133/185/41 123/179/41 131/183/41
f 134/178/41 125/177/41 133/185/41 138/184/41
f 125/177/41 123/179/41 133/185/41
f 126/175/42 135/175/42 134/178/42 124/178/42
f 128/180/43 136/180/43 135/175/43 126/175/43
f 130/182/44 137/182/44 136/180/44 128/180/44
f 132/184/45 138/184/45 137/182/45 130/182/45
f 124/178/46 134/178/46 138/184/46 132/184/46
f 140/178/47 141/177/47 143/176/47 142/175/47
f 150/177/47 139/179/47 151/176/47
f 142/175/47 143/176/47 145/181/47 144/180/47
f 151/176/47 139/179/47 152/181/47
f 144/180/47 145/181/47 147/183/47 146/182/47
f 152/181/47 139/179/47 153/183/47
f 146/182/47 147/183/47 149/185/47 148/184/47
f 153/183/47 139/179/47 154/185/47
f 148/184/47 149/185/47 141/177/47 140/178/47
f 154/185/47 139/179/47 150/177/47
f 141/177/42 150/177/42 151/176/42 143/176/42
f 143/176/43 151/176/43 152/181/43 145/181/43
f 145/181/44 152/181/44 153/183/44 147/183/44
f 147/183/45 153/183/45 154/185/45 149/185/45
f 149/185/46 154/185/46 150/177/46 141/177/46
f 167/175/48 159/176/48 157/177/48 166/178/48
f 159/176/48 155/179/48 157/177/48
f 168/180/48 161/181/48 159/176/48 167/175/48
f 161/181/48 155/179/48 159/176/48
f 169/182/48 163/183/48 161/181/48 168/180/48
f 163/183/48 155/179/48 161/181/48
f 170/184/48 165/185/48 163/183/48 169/182/48
f 165/185/48 155/179/48 163/183/48
f 166/178/48 157/177/48 165/185/48 170/184/48
f 157/177/48 155/179/48 165/185/48
f 158/175/49 167/175/49 166/178/49 156/178/49
f 160/180/50 168/180/50 167/175/50 158/175/50
f 162/182/51 169/182/51 168/180/51 160/180/51
f 164/184/52 170/184/52 169/182/52 162/182/52
f 156/178/53 166/178/53 170/184/53 164/184/53
f 172/178/54 173/177/54 175/176/54 174/175/54
f 182/177/54 171/179/54 183/176/54
f 174/175/54 175/176/54 177/181/54 176/180/54
f 183/176/54 171/179/54 184/181/54
f 176/180/54 177/181/54 179/183/54 178/182/54
f 184/181/54 171/179/54 185/183/54
f 178/182/54 179/183/54 181/185/54 180/184/54
f 185/183/54 171/179/54 186/185/54
f 180/184/54 181/185/54 173/177/54 172/178/54
f 186/185/54 171/179/54 182/177/54
f 173/177/49 182/177/49 183/176/49 175/176/49
f 175/176/50 183/176/50 184/181/50 177/181/50
f 177/181/51 184/181/51 185/183/51 179/183/51
f 179/183/52 185/183/52 186/185/52 181/185/52
f 181/185/53 186/185/53 182/177/53 173/177/53
f 199/175/55 191/176/55 189/177/55 198/178/55
f 191/176/55 187/179/55 189/177/55
f 200/180/55 193/181/55 191/176/55 199/175/55
f 193/181/55 187/179/55 191/176/55
f 201/182/55 195/183/55 193/181/55 200/180/55
f 195/183/55 187/179/55 193/181/55
f 202/184/55 197/185/55 195/183/55 201/182/55
f 197/185/55 187/179/55 195/183/55
f 198/178/55 189/177/55 197/185/55 202/184/55
f 189/177/55 187/179/55 197/185/55
f 190/175/56 199/175/56 198/178/56 188/178/56
f 192/180/57 200/180/57 199/175/57 190/175/57
f 194/182/58 201/182/58 200/180/58 192/180/58
f 196/184/59 202/184/59 201/182/59 194/182/59
f 188/178/60 198/178/60 202/184/60 196/184/60
f 204/178/61 205/177/61 207/176/61 206/175/61
f 214/177/61 203/179/61 215/176/61
f 206/175/61 207/176/61 209/181/61 208/180/61
f 215/176/61 203/179/61 216/181/61
f 208/180/61 209/181/61 211/183/61 210/182/61
f 216/181/61 203/179/61 217/183/61
f 210/182/61 211/183/61 213/185/61 212/184/61
f 217/183/61 203/179/61 218/185/61
f 212/184/61 213/185/61 205/177/61 204/178/61
f 218/185/61 203/179/61 214/177/61
f 205/177/56 214/177/56 215/176/56 207/176/56
f 207/176/57 215/176/57 216/181/57 209/181/57
f 209/181/58 216/181/58 217/183/58 211/183/58
f 211/183/59 217/183/59 218/185/59 213/185/59
f 213/185/60 218/185/60 214/177/60 205/177/60
